<svg xmlns="http://www.w3.org/2000/svg" data-name="Layer 2" width="9" height="15"><rect id="backgroundrect" width="100%" height="100%" x="0" y="0" fill="none" stroke="none" class="" style=""/><title/><g class="currentLayer" style=""><title>Layer 1</title><path d="M6.499893620995625,0 A4.505,4.505 0 0 0 1.9998936209956248,4.5 v5.5 H0.49989362099562495 a0.5,0.5 0 0 0 -0.3535000000000001,0.8535 l4,4 a0.5,0.5 0 0 0 0.7070000000000002,0 l4,-4 A0.5,0.5 0 0 0 8.499893620995625,10 H6.999893620995625 V0.5 A0.5,0.5 0 0 0 6.499893620995625,0 zm0.793,11 L4.499893620995625,13.793 L1.7068936209956247,11 H2.499893620995625 a0.5,0.5 0 0 0 0.5,-0.5 V4.5 a3.5069,3.5069 0 0 1 3,-3.4648 V10.5 a0.5,0.5 0 0 0 0.5,0.5 z" id="svg_1" class="" transform="rotate(179.59829711914062 4.499893665313721,7.499946117401124) "/></g></svg>